#!OML:ASF E:/inclinewalkrobotboard/Project1/Captureday1/Session1/subject1.ASF
:FULLY-SPECIFIED
:DEGREES
101
root 0 0 0 2.6455286179502675 -4.148799604731957 2.267200821083367
lowerback 12.044240870969968 1.0740128372564954 -0.21746495856903392
upperback -4.166750445194954 1.3695022472578064 -0.7535485168950623
thorax -11.198961113216559 0.6289602774411395 -0.9736276343403654
lowerneck -7.01569244485074 1.3705624076340983 4.310002564792194
upperneck 18.943610460363157 2.821693168662515 -8.137234859683137
head 7.086478987766585 0.9767950708338943 -3.153879453986459
rclavicle -1.5405100353561824E-15 -1.2148854052094019E-15
rhumerus 17.937652495798496 13.97945688216423 -51.69086783156253
rradius 69.31091408508627
rwrist 23.40100386130881
rhand -32.984949846972576 -49.128632681283655
rfingers 7.125019999999963
rthumb -6.252827167018671 -79.17579351378527
lclavicle 6.641045935153615E-16 6.835793786286428E-16
lhumerus 18.033424298001286 -14.05722434219381 49.51721311014586
lradius 67.51224957406997
lwrist -18.031167938590045
lhand -44.00182878745149 -60.2971527859784
lfingers 7.1250199999999575
lthumb -16.832266048442825 -30.86173253749374
rfemur -27.22571315095468 0.7939632836772559 19.2361887945592
rtibia 39.23360269534765
rfoot -29.60480451001687 -17.434847726334613
rtoes -18.016700541718166
lfemur -24.76386541792234 2.1113296737589002 -15.733867772452696
ltibia 40.72972502810775
lfoot -29.275087948216957 6.366472494724172
ltoes -16.91581562978932
102
root 0 0 0 2.8109227234134564 -4.263731279986427 2.1599051187215035
lowerback 11.92730250017517 1.1558588615555931 -0.10332518579196981
upperback -4.190361204177856 1.4883956937660017 -0.7771292195829221
thorax -11.143415863706668 0.6839506852382198 -1.0771189729031883
lowerneck -6.993443394219597 1.329260422109171 4.281430779170165
upperneck 18.911243771336576 2.757268234144985 -8.05152537430852
head 7.072990833495802 0.9529549376045351 -3.12609407402961
rclavicle -1.5074072910912444E-15 -9.254777652493035E-16
rhumerus 18.01211349126465 14.117006367022833 -51.82658516408014
rradius 69.3694239133492
rwrist 23.26180351198905
rhand -32.970214726874865 -49.037576226008596
rfingers 7.125019999999963
rthumb -6.238034053801062 -79.08216527452672
lclavicle 8.116909504004297E-16 9.014560934602462E-16
lhumerus 17.897469952867496 -13.937093204013175 49.53394634350753
lradius 67.3851440461851
lwrist -18.052742320304418
lhand -43.962519874540575 -60.22574006061064
lfingers 7.125019999999957
lthumb -16.794393943758063 -30.783892790278497
rfemur -24.949516084550204 1.88327526100157 20.238148586534656
rtibia 32.77019475299332
rfoot -30.84714995436987 -17.104073577536116
rtoes -20.02341870769507
lfemur -23.378665327176158 1.0812584126643738 -15.745363577149472
ltibia 35.02672430339321
lfoot -29.86564392483099 7.066411722162772
ltoes -18.504557898666654
103
root 0 0 0 2.8833663634576205 -4.29619797731902 2.105084458178404
lowerback 11.838234331263951 1.1909848900529922 -0.051340850304222085
upperback -4.204087025819111 1.5384244800993783 -0.7868567528140525
thorax -11.099073145277398 0.7071219116422256 -1.1211866710511278
lowerneck -6.981922306729174 1.2959821374649179 4.263574634015891
upperneck 18.977934497798266 2.707171514412164 -8.008743380448005
head 7.094312413905628 0.9318129906877121 -3.1140261710993205
rclavicle -1.4038345323685885E-15 -7.387841409251733E-16
rhumerus 17.804923748930243 13.872892542181193 -51.73241982500309
rradius 69.20161278598964
rwrist 23.37916221719474
rhand -32.94661727989732 -48.97053297812967
rfingers 7.125019999999962
rthumb -6.213116762808447 -79.02006247085026
lclavicle 8.962216049665899E-16 9.827422514591803E-16
lhumerus 17.68126721840045 -13.666122479494819 49.506595193493375
lradius 67.16007163852572
lwrist -18.1566350644921
lhand -43.91803927254894 -60.26421902858619
lfingers 7.125019999999956
lthumb -16.75239362736739 -30.813986000491244
rfemur -23.529124425782197 2.5017204412748963 20.53032393936239
rtibia 29.465090476852374
rfoot -30.019062565359174 -16.50429544424393
rtoes -21.19431628603366
lfemur -21.89411521951089 0.30033374261908097 -15.522731338807924
ltibia 32.00636678593159
lfoot -28.06587137793713 6.382043133171261
ltoes -19.439234312269537
104
root 0 0 0 2.834152679061741 -4.272663105166949 2.121765171599927
lowerback 11.781484719904077 1.1893038061280916 -0.06422566534159813
upperback -4.2174669269287515 1.531917522728326 -0.795325276228697
thorax -11.079347399441836 0.7044110116488389 -1.1195874920146403
lowerneck -6.942635241276 1.2660837057331598 4.266027912088183
upperneck 19.23931912784368 2.665530435396282 -8.035907285573039
head 7.176476121465858 0.9091381130502117 -3.12912719905239
rclavicle -9.996014808009822E-16 -7.637104204923913E-16
rhumerus 17.169377121655018 13.04290232189606 -51.27716439313902
rradius 68.69031517016215
rwrist 23.899038914495044
rhand -32.911897783716825 -48.95351066178847
rfingers 7.125019999999962
rthumb -6.176105487633194 -79.02358784906173
lclavicle 1.0203470684555796E-15 8.214057062121618E-16
lhumerus 17.31520001710645 -13.091265065959044 49.38393427985628
lradius 66.74165312571279
lwrist -18.433208404978828
lhand -43.865600134597074 -60.53434981775302
lfingers 7.125019999999955
lthumb -16.70389627028879 -31.07426297955067
rfemur -22.969736168094613 2.1765743076148447 19.672873953452804
rtibia 32.58137636089926
rfoot -25.71837043802188 -15.337160069097092
rtoes -21.20542630044069
lfemur -19.90083759562522 -0.04032877030340476 -14.881907482068858
ltibia 33.60237851075668
lfoot -23.298246086312272 3.529390985353536
ltoes -20.42042858335182
105
root 0 0 0 2.685457673446847 -4.245513198766106 2.219964492109902
lowerback 11.80567943906227 1.169481984149118 -0.1447215060856798
upperback -4.218468071193967 1.4946170386773412 -0.810606863193221
thorax -11.101256725204571 0.6886548238088465 -1.0837726973731698
lowerneck -6.898664178699866 1.266768644221765 4.279279968224824
upperneck 19.434051497454075 2.6691261705955043 -8.088725416094737
head 7.235162570370526 0.9060716915914812 -3.149766847707488
rclavicle -7.240247055652885E-16 -9.564036800317882E-16
rhumerus 16.699977100929026 12.402051085297012 -50.88389645988252
rradius 68.31156198250224
rwrist 24.339089050274602
rhand -32.89866046461866 -49.0027566341395
rfingers 7.125019999999962
rthumb -6.161759383598918 -79.09555365174546
lclavicle 1.0170009620108376E-15 5.424292255233077E-16
lhumerus 17.15909620014137 -12.745455194923721 49.263361124425316
lradius 66.53029912563323
lwrist -18.638129038752055
lhand -43.8627619767403 -60.82936934004865
lfingers 7.125019999999954
lthumb -16.702780424454833 -31.369416253793464
rfemur -24.38478253140768 0.9586234585349105 18.104133508659693
rtibia 40.86105679382953
rfoot -20.813256011272816 -14.508137205945243
rtoes -19.49834830177434
lfemur -18.796791250083924 0.5424466245465519 -14.473788169485395
ltibia 39.775524681092456
lfoot -19.602838479289986 0.4593182557066551
ltoes -20.979103413199688
